PathFileType	4	(X/Y/Z)	Patient5_TMGait_0pt45_1_right_07.trc.trc
DataRate	CameraRate	NumFrames	NumMarkers	Units	OrigDataRate	OrigDataStartFrame	OrigNumFrames
59.071729957806	59.071729957806	4	32	mm	59.071729957806	1	       141
Frame#	Time	R.ASIS			L.ASIS			Chest			R.Shoulder			Neck			L.Shoulder			L.Elbow			L.Wrist			R.Elbow			R.Wrist			L.Thigh.Superior			L.Thigh.Lateral			L.Thigh.Inferior			L.Patella			L.Shank.Superior			L.Shank.Lateral			L.Shank.Inferior			L.Heel			L.Midfoot.Lateral			L.Midfoot.Superior			L.Toe			R.Thigh.Superior			R.Thigh.Lateral			R.Thigh.Inferior			R.Patella			R.Shank.Superior			R.Shank.Lateral			R.Shank.Inferior			R.Heel			R.Midfoot.Lateral			R.Midfoot.Superior			R.Toe			
		X1	Y1	Z1	X2	Y2	Z2	X3	Y3	Z3	X4	Y4	Z4	X5	Y5	Z5	X6	Y6	Z6	X7	Y7	Z7	X8	Y8	Z8	X9	Y9	Z9	X10	Y10	Z10	X11	Y11	Z11	X12	Y12	Z12	X13	Y13	Z13	X14	Y14	Z14	X15	Y15	Z15	X16	Y16	Z16	X17	Y17	Z17	X18	Y18	Z18	X19	Y19	Z19	X20	Y20	Z20	X21	Y21	Z21	X22	Y22	Z22	X23	Y23	Z23	X24	Y24	Z24	X25	Y25	Z25	X26	Y26	Z26	X27	Y27	Z27	X28	Y28	Z28	X29	Y29	Z29	X30	Y30	Z30	X31	Y31	Z31	X32	Y32	Z32	

1	11.170000000000	1005.263117218354	1023.234081366037	535.455511116261	1038.751490907672	960.810429575729	294.787391073152	1106.428304613079	1442.659673825424	426.691201251374	972.449857405175	1512.255379572854	562.159410059272	999.041710938810	1571.848818857442	379.870136791530	1104.460882320978	1512.731531302632	224.486712313905	1077.944405751609	1195.472105224753	77.619343867075	1217.473105979814	944.223402979237	99.571086261988	848.492696004556	1195.661745684806	678.718740662782	1061.741679568655	999.418779638385	659.759628874000	1041.683737250656	739.178275929312	305.742680987091	967.792916099260	672.421400259672	260.248136272070	1025.656008307201	612.445703527693	333.676926451978	1016.581930165739	498.115752867562	346.363394002505	961.336303726500	399.221883648843	364.023428877421	902.398655712002	331.313250815354	278.902304654957	918.010403746646	279.304247660837	372.465516735861	769.308535102133	51.208088580069	365.518432604772	861.612952549874	27.099974200308	311.632678934240	955.643998836364	87.939204298397	362.368487494807	1062.654691720023	43.907383025869	373.032310502305	1041.141923070318	807.097175980281	594.656042026363	968.076295027959	729.256520647501	652.811672952336	1067.370419856797	682.109265158730	604.459435891841	1083.105283004293	587.693350816270	657.738501130991	1041.368506363258	477.775577495023	622.434519976699	946.145745827391	421.969332555098	688.137932576990	1012.849322994342	340.278443418614	628.553049719025	883.264968231334	128.522357735722	587.387750032764	941.053174029507	84.604329539008	671.582855385487	1054.184496097891	138.742116900033	681.584947911630	1150.377017838561	83.499335884025	698.268131665035	
2	11.186928571429	1004.134202875306	1023.729695168005	536.333353838184	1037.182158595829	960.924471376743	295.214159319399	1103.221765820387	1442.413133576950	426.946292907154	968.555139702904	1512.376447223911	561.688823121952	996.117999382997	1571.575212783532	379.442951667730	1102.080724242934	1511.850250419317	224.563797402727	1076.744961607591	1194.090256710449	78.636169058909	1216.852490467100	943.194311035793	100.997414267128	844.678097904870	1195.414107508623	677.418882382893	1059.028892737702	1000.221689697967	659.861270370141	1038.838032488406	738.309818385544	306.247509013072	964.305815834273	672.262937741456	260.484341362981	1021.536201019593	611.590096856864	334.007132936507	1010.891451474614	497.305103062358	346.124662486580	954.964843120723	398.947564322200	363.794443831508	895.273017838156	331.445184918231	278.903981114007	910.987192585821	279.273159879524	372.336730322485	761.285032072140	51.402159320321	365.733938823585	853.519429704426	27.217826111586	311.796042641380	947.604538003620	87.790851414672	362.493220116952	1054.634098988038	43.836480293111	373.030565554112	1044.407793333501	810.741219579873	595.625810149035	974.105925445831	730.494949276488	653.154763971512	1074.898928130267	686.639357287403	604.723652801676	1093.306080262282	592.478089455951	657.545153755344	1054.256255657230	481.522636975435	622.017451689233	960.493266762105	423.324741489171	687.732403497317	1028.766283918679	343.477949201445	627.686240526075	904.137536548702	128.788885395712	586.155849243808	963.055197349580	86.259702998260	670.224621431361	1074.688226560575	143.320155004090	680.196872709051	1172.265373014314	90.591158624707	696.751462139862	
3	11.203857142857	1003.040334944664	1024.150824515999	537.204291228695	1035.613597341926	961.075150335962	295.581049971302	1100.048702586547	1442.205504135273	427.232437097138	964.711174266855	1512.498792875240	561.310909510998	993.195032328848	1571.331229121310	379.113167711057	1099.672830271110	1511.049797228419	224.694644487414	1075.490385037901	1192.804313248042	79.687683007015	1216.090769063541	942.214795710499	102.488112553060	840.812704229876	1195.209404756559	676.196617584445	1056.288768712300	1001.105963028475	660.078721910134	1035.958799907949	737.499021085532	306.663009316609	960.781790688454	672.169204600076	260.640156469347	1017.361230960366	610.782856539681	334.213466106313	1005.196805439008	496.551219741237	345.744856643814	948.611219280164	398.737030771663	363.460759794694	888.108096357855	331.643308629251	278.828191521782	904.020121574852	279.298114406646	372.126569728598	753.359750270073	51.648469433054	365.919269104500	845.524827668305	27.338438458097	311.956129543804	939.687078189278	87.702246405022	362.551014345997	1046.698815037737	43.759593432931	373.030922386352	1047.873063181681	814.264514296853	596.427846993903	980.254904513418	731.740141900317	653.424377976943	1082.409573618885	691.074850407255	604.763798291776	1103.469488473064	597.185343370708	657.144471579182	1066.899851128745	485.213456382193	621.457072406764	974.615313702188	424.760212270314	687.306900860310	1044.253066738824	346.661660569269	626.694325583431	924.227068564055	129.226899920011	584.902715708765	984.277538138665	88.037647117892	668.853223983354	1094.505238005967	147.835967042325	678.652105697198	1193.380837454320	97.454261062459	695.007033173306	
4	11.220785714286	1002.027655510645	1024.413474605137	538.059586509736	1034.035356491308	961.278744660899	295.835504430514	1096.942253125274	1442.066464150502	427.577151263936	960.980055430073	1512.606144429257	561.124114719047	990.265774643489	1571.131871619044	378.979970329396	1097.186011492661	1510.402024770327	224.927212797775	1074.093707521905	1191.696594768352	80.805691169019	1215.037926075458	941.332670980440	104.104347588872	836.870631863065	1195.074877579093	675.157935716972	1053.482162287445	1002.093216825242	660.517903429376	1033.032975182595	736.797401424602	306.922978282619	957.189839437278	672.180860774510	260.675207186462	1013.104294476740	610.071008335731	334.210559264426	999.502248798542	495.899249505508	345.131411521455	942.291014640386	398.638488852121	362.961320916723	880.877036125067	331.963365688290	278.636264393151	897.150067607887	279.420966632243	371.786194917985	745.586832156510	52.001832147009	366.061358774377	837.679874963610	27.478606298745	312.112248015106	931.960222769199	87.711857526567	362.500716020977	1038.889397769438	43.677364447916	373.030843053847	1051.701252624092	817.516901242535	596.907469497774	986.592175549950	732.958251786102	653.549782059487	1089.840008713205	695.275288810503	604.377794785812	1113.505309898921	601.684958066559	656.334211072604	1079.037728622045	488.743583187005	620.604372980048	988.283205826376	426.285433520334	686.820947476241	1058.909388081728	349.759581426774	625.452823940729	942.841772234491	129.913682807615	583.634828326545	1004.068221133164	89.967231581352	667.429442402998	1113.049262310058	152.180683629850	676.770057333413	1213.074752776166	103.857632353905	692.744657721875	
